<?xml version="1.0" standalone="no"?><!DOCTYPE svg PUBLIC "-//W3C//DTD SVG 1.1//EN" "http://www.w3.org/Graphics/SVG/1.1/DTD/svg11.dtd"><svg t="1719375479084" class="icon" viewBox="0 0 1024 1024" version="1.1" xmlns="http://www.w3.org/2000/svg" p-id="6155" xmlns:xlink="http://www.w3.org/1999/xlink" width="200" height="200"><path d="M512 984.96c-5.546667 0-11.093333-1.493333-16-4.266667L114.133333 760.32c-9.813333-5.76-16-16.213333-16-27.733333V291.413333c0-11.52 6.186667-21.973333 16-27.733333l381.866667-220.586667a31.786667 31.786667 0 0 1 32 0l381.866667 220.586667c9.813333 5.76 16 16.213333 16 27.733333v440.96c0 11.52-6.186667 21.973333-16 27.733334l-381.866667 220.586666c-4.906667 2.986667-10.453333 4.266667-16 4.266667zM162.133333 714.026667L512 916.053333l349.866667-202.026666V309.973333L512 107.946667 162.133333 309.973333v404.053334z m731.733334 18.56z" p-id="6156"></path><path d="M546.773333 218.666667c29.866667 67.413333-107.52 109.226667-120.32 165.546666-11.733333 51.626667 81.493333 111.786667 81.706667 111.786667-14.293333-21.333333-24.533333-39.04-38.613333-72.32-24.106667-56.32 146.346667-107.306667 77.226666-205.013333z m91.093334 93.653333s-120.32 7.466667-126.506667 82.346667c-2.773333 33.493333 31.573333 51.2 32.64 75.52 0.853333 19.84-20.48 36.266667-20.48 36.266666s38.613333-7.04 50.773333-37.333333c13.44-33.706667-26.026667-56.533333-21.973333-83.413333 3.626667-25.813333 85.546667-73.386667 85.546667-73.386667z m29.226666 173.226667c-12.586667-0.426667-26.666667 3.626667-39.253333 12.373333 24.746667-5.12 45.866667 9.6 45.866667 26.666667 0 38.4-56.96 74.88-56.96 74.88s88.32-9.813333 88.32-72.96c-0.213333-26.24-17.066667-40.106667-37.973334-40.96z m-218.453333 0s-110.293333-1.493333-110.293333 29.013333c0 31.786667 144.426667 33.92 247.466666 14.506667 0 0 27.52-18.346667 34.773334-25.173334-67.626667 13.44-221.866667 15.146667-221.866667 3.626667 0.213333-10.88 49.92-21.973333 49.92-21.973333z m-26.666667 59.093333c-16.853333 0-42.026667 12.8-42.026666 24.96 0 24.746667 127.36 43.733333 221.653333 7.68l-32.64-19.413333c-64 19.84-181.76 13.44-146.986667-13.226667z m15.786667 55.253333c-23.253333 0-38.186667 13.866667-38.186667 24.106667 0 31.573333 138.453333 34.773333 193.28 2.56l-34.773333-21.546667c-41.173333 17.066667-144 19.2-120.32-5.12z m-77.44 28.586667c-37.76-0.853333-62.293333 15.786667-62.293333 29.44 0 72.96 386.986667 69.333333 386.986666-5.12 0-12.373333-14.933333-18.346667-20.48-21.12 31.573333 71.253333-316.586667 65.706667-316.586666 23.68 0-9.6 25.6-18.986667 49.28-14.506667l-20.053334-11.093333c-5.333333-0.64-11.093333-1.066667-16.853333-1.28z m365.653333 49.066667c-58.88 54.186667-208 74.026667-357.973333 40.533333 149.973333 59.733333 357.12 26.24 357.973333-40.533333z m0 0" p-id="6157"></path></svg>