<?xml version="1.0" standalone="no"?><!DOCTYPE svg PUBLIC "-//W3C//DTD SVG 1.1//EN" "http://www.w3.org/Graphics/SVG/1.1/DTD/svg11.dtd"><svg t="1719375528809" class="icon" viewBox="0 0 1024 1024" version="1.1" xmlns="http://www.w3.org/2000/svg" p-id="7142" xmlns:xlink="http://www.w3.org/1999/xlink" width="200" height="200"><path d="M0 0m170.666667 0l682.666666 0q170.666667 0 170.666667 170.666667l0 682.666666q0 170.666667-170.666667 170.666667l-682.666666 0q-170.666667 0-170.666667-170.666667l0-682.666666q0-170.666667 170.666667-170.666667Z" fill="#E9E9E9" p-id="7143"></path><path d="M512.256 676.693333A174.677333 174.677333 0 0 1 337.806222 502.243556a175.189333 175.189333 0 0 1 70.456889-140.032 22.840889 22.840889 0 0 1 32.056889 4.721777 22.869333 22.869333 0 0 1-4.750222 32.056889 128.711111 128.711111 0 1 0 205.425778 103.253334 129.365333 129.365333 0 0 0-52.451556-103.651556 23.011556 23.011556 0 0 1-4.835556-32.056889 22.983111 22.983111 0 0 1 32.056889-4.835555 175.047111 175.047111 0 0 1 70.940445 140.544 174.592 174.592 0 0 1-174.449778 174.449777zM486.570667 348.529778c0-14.165333 11.548444-25.713778 25.713777-25.713778s25.742222 11.548444 25.742223 25.713778v153.713778a25.770667 25.770667 0 0 1-25.742223 25.713777 25.770667 25.770667 0 0 1-25.713777-25.713777V348.529778z m335.758222 130.730666L697.429333 263.111111C686.592 244.394667 659.996444 228.977778 638.236444 228.977778H388.721778C367.104 228.977778 340.366222 244.394667 329.557333 263.111111L204.856889 479.288889c-10.808889 18.773333-10.808889 49.436444 0 68.209778l124.757333 216.234666C340.366222 782.478222 366.990222 797.866667 388.721778 797.866667h249.628444c21.617778 0 48.241778-15.388444 59.164445-34.161778l124.757333-216.234667c10.808889-18.773333 10.808889-49.436444 0-68.209778z" fill="#6DB33F" p-id="7144"></path></svg>