<?xml version="1.0" standalone="no"?><!DOCTYPE svg PUBLIC "-//W3C//DTD SVG 1.1//EN" "http://www.w3.org/Graphics/SVG/1.1/DTD/svg11.dtd"><svg t="1719414768377" class="icon" viewBox="0 0 3254 1024" version="1.1" xmlns="http://www.w3.org/2000/svg" p-id="19011" xmlns:xlink="http://www.w3.org/1999/xlink" width="635.546875" height="200"><path d="M510.338844 510.338844m-510.338844 0a510.338844 510.338844 0 1 0 1020.677689 0 510.338844 510.338844 0 1 0-1020.677689 0Z" fill="#C71D23" p-id="19012"></path><path d="M768.671289 453.643378H478.845156a25.224533 25.224533 0 0 0-25.213156 25.201778l-0.011378 63.010133a25.1904 25.1904 0 0 0 25.1904 25.201778h176.446578c13.915022 0 25.201778 11.275378 25.201778 25.201777V604.842667a75.605333 75.605333 0 0 1-75.605334 75.605333H365.420089a25.201778 25.201778 0 0 1-25.201778-25.201778V415.857778a75.605333 75.605333 0 0 1 75.593956-75.605334h352.779377a25.258667 25.258667 0 0 0 25.224534-25.201777l0.034133-62.998756a25.179022 25.179022 0 0 0-25.179022-25.201778H415.835022c-104.391111 0-189.019022 84.616533-189.019022 189.007645v352.824889c0 13.915022 11.286756 25.201778 25.201778 25.201777h371.734755c93.957689 0 170.120533-76.162844 170.120534-170.120533V478.845156a25.201778 25.201778 0 0 0-25.201778-25.201778z" fill="#FFFFFF" p-id="19013"></path><path d="M1475.470222 903.532089c76.708978 0 137.955556-14.961778 183.716978-44.896711 45.7728-29.923556 68.664889-68.676267 68.664889-116.246756 0-76.731733-57.287111-115.0976-171.838578-115.0976h-70.576355c-23.517867 0-40.391111-2.298311-50.631112-6.906311-10.217244-4.608-15.337244-12.276622-15.337244-23.017244 0-10.740622 3.322311-19.694933 9.978311-26.851556 2.548622-3.072 5.882311-4.096 9.966933-3.072 16.361244 4.596622 31.971556 6.906311 46.7968 6.906311 52.679111 0 95.505067-12.663467 128.489245-37.9904 32.984178-25.315556 49.481956-62.793956 49.481955-112.412444 0-18.409244-3.333689-34.781867-9.978311-49.106489-0.512-1.024-0.386844-2.173156 0.386845-3.458845a3.766044 3.766044 0 0 1 3.447466-1.911466h17.635556c12.8 0 23.529244-4.346311 32.233244-13.050311 8.692622-8.692622 13.038933-19.433244 13.038934-32.221867v-10.740622c0-12.288-4.346311-22.892089-13.038934-31.857778-8.704-8.942933-19.433244-13.425778-32.221866-13.425778h-112.765156a47.559111 47.559111 0 0 1-11.502933-1.524622c-19.945244-6.144-41.688178-9.216-65.206045-9.216-33.245867 0-63.670044 5.757156-91.283911 17.271467-27.613867 11.502933-50.505956 29.923556-68.653511 55.250489-18.158933 25.315556-27.2384 55.375644-27.2384 90.157511 0 24.041244 5.632 46.034489 16.873245 65.991111 11.264 19.945244 25.315556 36.067556 42.200177 48.344178 1.024 0.512 1.524622 1.274311 1.524623 2.298311 0 1.024-0.512 2.048-1.524623 3.072-14.324622 10.228622-25.827556 22.641778-34.520177 37.205333-8.704 14.586311-13.050311 29.548089-13.050311 44.896711 0 32.733867 13.050311 58.0608 39.128177 75.969422 1.024 0.512 1.536 1.399467 1.536 2.685156a4.778667 4.778667 0 0 1-1.536 3.447467c-20.457244 10.24-35.931022 22.755556-46.421333 37.603555-10.467556 14.836622-15.712711 31.197867-15.712711 49.106489 0 25.577244 8.692622 47.058489 26.077867 64.455111 17.385244 17.396622 39.765333 29.7984 67.128888 37.205333 27.352178 7.429689 58.936889 11.138844 94.731378 11.138845z m10.740622-413.582222c-16.873244 0-30.560711-6.030222-41.039644-18.045156-10.490311-12.014933-15.724089-29.2864-15.724089-51.791644 0-21.993244 5.233778-39.003022 15.724089-51.029334 10.478933-12.014933 24.1664-18.033778 41.039644-18.033777s30.549333 5.882311 41.039645 17.646933c10.478933 11.764622 15.724089 28.899556 15.724089 51.416178 0 22.505244-5.233778 39.776711-15.724089 51.791644-10.490311 12.026311-24.1664 18.033778-41.039645 18.033778z m10.740623 326.098489c-29.149867 0-52.292267-3.959467-69.4272-11.889778-17.134933-7.930311-25.691022-19.820089-25.691023-35.680711 0-12.788622 5.870933-24.803556 17.635556-36.067556 1.536-1.524622 3.834311-2.298311 6.906311-2.298311h2.298311c12.788622 2.56 32.221867 3.834311 58.299734 3.834311h42.1888c22.505244 0 39.003022 2.309689 49.493333 6.906311 10.467556 4.608 15.712711 13.050311 15.712711 25.326934 0 14.324622-9.079467 26.2144-27.227022 35.680711-18.158933 9.466311-41.551644 14.188089-70.200889 14.188089zM1868.231111 203.730489c23.005867 0 41.927111-6.656 56.763733-19.956622 14.825244-13.300622 22.243556-30.435556 22.243556-51.4048 0-20.980622-7.418311-38.240711-22.243556-51.803023-14.836622-13.550933-33.757867-20.332089-56.775111-20.332088-23.517867 0-42.825956 6.781156-57.912889 20.332088-15.086933 13.562311-22.6304 30.833778-22.6304 51.803023s7.543467 38.115556 22.641778 51.4048c15.075556 13.312 34.383644 19.956622 57.912889 19.956622z m23.779556 509.496889c12.265244 0 22.880711-4.471467 31.835022-13.425778 8.942933-8.954311 13.425778-19.569778 13.425778-31.8464v-356.807111c0-12.276622-4.482844-22.892089-13.425778-31.835022-8.954311-8.954311-19.569778-13.425778-31.835022-13.425778h-48.3328c-12.788622 0-23.517867 4.471467-32.221867 13.425778-8.692622 8.942933-13.038933 19.569778-13.038933 31.835022v356.807111c0 12.288 4.346311 22.892089 13.038933 31.857778 8.704 8.942933 19.433244 13.425778 32.221867 13.425778h48.3328z m333.687466 10.752c19.433244 0 38.6048-1.797689 57.526045-5.381689 12.288-2.048 21.731556-8.692622 28.387555-19.945245 4.608-7.668622 6.906311-15.598933 6.906311-23.779555 0-3.584-0.261689-7.429689-0.773688-11.514311l-3.072-12.288c-2.548622-10.729244-8.942933-19.308089-19.171556-25.7024-10.228622-6.394311-21.731556-9.841778-34.520178-10.353778-35.282489-1.536-52.929422-24.553244-52.929422-69.063111v-164.977778c0-3.572622 1.786311-5.370311 5.370311-5.370311h54.465422c12.276622 0 22.880711-4.471467 31.835023-13.425778 8.954311-8.954311 13.425778-19.569778 13.425777-31.8464v-19.182933c0-12.276622-4.471467-22.892089-13.425777-31.835022-8.954311-8.954311-19.569778-13.425778-31.835023-13.425778h-54.465422c-3.584 0-5.370311-1.797689-5.370311-5.381689V193.763556c0-12.788622-4.471467-23.529244-13.425778-32.233245-8.942933-8.692622-19.5584-13.038933-31.835022-13.038933h-26.077867c-12.788622 0-24.041244 4.209778-33.757866 12.663466a51.757511 51.757511 0 0 0-17.635556 31.835023l-8.442311 67.527111c-0.512 3.584-2.810311 5.632-6.906311 6.144l-17.635556 1.536a47.445333 47.445333 0 0 0-32.221866 15.724089 47.741156 47.741156 0 0 0-13.038934 33.3824v13.038933c0 12.288 4.471467 22.892089 13.425778 31.857778 8.942933 8.942933 19.5584 13.425778 31.835022 13.425778h9.966934c3.584 0 5.370311 1.786311 5.370311 5.358933V547.498667c0 55.751111 12.788622 99.111822 38.354489 130.059377 25.577244 30.947556 65.456356 46.421333 119.671466 46.421334z m375.113956 0c40.914489 0 81.3056-9.466311 121.196089-28.398934 11.264-5.12 18.409244-14.062933 21.481244-26.851555 1.536-4.096 2.298311-8.192 2.298311-12.288 0-7.668622-2.298311-15.337244-6.894933-23.005867l-2.309689-4.608c-6.132622-10.740622-15.086933-17.908622-26.851555-21.481244a63.874844 63.874844 0 0 0-16.873245-2.309689c-6.644622 0-13.038933 1.024-19.171555 3.072-17.385244 6.144-35.293867 9.216-53.703112 9.216-60.336356 0-96.904533-26.862933-109.681777-80.577422a4.232533 4.232533 0 0 1 0.762311-4.221156 4.721778 4.721778 0 0 1 3.834311-1.922844h210.944c13.312 0 25.065244-4.209778 35.293867-12.652089 10.228622-8.442311 15.587556-19.057778 16.110933-31.857778v-14.563556c0-64.466489-16.372622-116.644978-49.095111-156.535466-32.733867-39.901867-80.292978-59.847111-142.677334-59.847111a195.356444 195.356444 0 0 0-78.631822 16.497777 216.8832 216.8832 0 0 0-67.504355 46.034489c-19.683556 19.683556-35.544178 44.498489-47.559111 74.422045-12.026311 29.923556-18.033778 62.543644-18.033778 97.848889 0 72.123733 21.356089 129.160533 64.056889 171.099022 42.7008 41.949867 97.041067 62.919111 163.009422 62.919111z m52.155733-283.921067h-140.379022c-3.572622 0-5.370311-1.274311-5.370311-3.834311 0-20.969244 9.978311-39.640178 29.923555-56.0128 14.313244-12.276622 31.448178-18.420622 51.393423-18.420622 23.017244 0 40.277333 6.530844 51.780266 19.569778 11.502933 13.050311 17.772089 30.572089 18.796089 52.565333v0.762311c0 3.584-2.048 5.370311-6.144 5.370311z m415.778134 283.921067c40.914489 0 81.3056-9.466311 121.196088-28.398934 11.264-5.12 18.409244-14.062933 21.481245-26.851555 1.536-4.096 2.298311-8.192 2.298311-12.288 0-7.668622-2.298311-15.337244-6.894933-23.005867l-2.309689-4.608c-6.144-10.740622-15.086933-17.908622-26.851556-21.481244a63.874844 63.874844 0 0 0-16.873244-2.309689c-6.644622 0-13.038933 1.024-19.171556 3.072-17.385244 6.144-35.293867 9.216-53.703111 9.216-60.347733 0-96.904533-26.862933-109.693155-80.577422a4.232533 4.232533 0 0 1 0.762311-4.221156 4.721778 4.721778 0 0 1 3.845689-1.922844h210.944c13.300622 0 25.065244-4.209778 35.293866-12.652089 10.228622-8.442311 15.587556-19.057778 16.110934-31.857778v-14.563556c0-64.466489-16.372622-116.644978-49.095112-156.535466-32.733867-39.901867-80.292978-59.847111-142.677333-59.847111a195.356444 195.356444 0 0 0-78.631822 16.497777 216.8832 216.8832 0 0 0-67.504356 46.034489c-19.683556 19.683556-35.544178 44.498489-47.559111 74.422045-12.026311 29.923556-18.033778 62.543644-18.033778 97.848889 0 72.123733 21.356089 129.160533 64.056889 171.099022 42.7008 41.949867 97.029689 62.919111 163.009423 62.919111z m52.155733-283.921067H2980.522667c-3.572622 0-5.370311-1.274311-5.370311-3.834311 0-20.969244 9.978311-39.640178 29.923555-56.0128 14.313244-12.276622 31.448178-18.420622 51.393422-18.420622 23.017244 0 40.277333 6.530844 51.768889 19.569778 11.514311 13.050311 17.783467 30.572089 18.807467 52.565333v0.762311c0 3.584-2.048 5.370311-6.144 5.370311z" fill="#000000" p-id="19014"></path></svg>