<?xml version="1.0" standalone="no"?><!DOCTYPE svg PUBLIC "-//W3C//DTD SVG 1.1//EN" "http://www.w3.org/Graphics/SVG/1.1/DTD/svg11.dtd"><svg t="1719406164902" class="icon" viewBox="0 0 5092 1024" version="1.1" xmlns="http://www.w3.org/2000/svg" p-id="4313" xmlns:xlink="http://www.w3.org/1999/xlink" width="994.53125" height="200"><path d="M293.946837 0h276.767324l-9.88749 23.523987q-0.617968 1.524321 1.029947 1.524321l1283.93177-0.082396q2.883851 0 1.647915 2.636664l-115.807226 247.146052a2.842653 2.842653 0 0 0 2.554268 4.037391l33.16429-0.205989a1.112343 1.112343 0 0 1 0.988749 1.565519l-221.273786 471.67447a2.760258 2.760258 0 0 1-2.513071 1.606717l-177.686434-0.041198q-4.243381 0-2.430675-3.831402l116.136809-247.310843a1.853904 1.853904 0 0 0-1.689112-2.636664l-33.988247-0.082396q-2.307081 0-1.318332-2.059894l176.944872-376.0954q1.647915-3.543017-2.224685-3.501819l-15.655192 0.082396a6.59166 6.632858 12.4 0 0-5.891296 3.790204l-328.80024 702.300173a4.284579 4.284579 0 0 1-3.8726 2.471873l-179.087162 0.082396q-1.771509 0-1.029947-1.56552L1413.499087 120.627378q1.277134-2.760258-1.771508-2.760258l-185.060854 0.123594a4.366975 4.325777 12.2 0 0-3.954996 2.51307l-83.961269 180.034713a2.636664 2.595466 12.4 0 0 2.389476 3.707809l72.467062-0.041198a1.441926 1.441926 0 0 1 1.277134 2.059894l-42.269019 87.916265q-1.112343 2.307081-3.666611 2.307081l-72.302271 0.041198q-2.636664 0-3.749006 2.389476l-53.186457 112.882178a1.483123 1.524321 12.5 0 0 1.35953 2.142289l134.263874 0.041198q3.501819 0 1.977498 3.172236l-41.692249 86.350746q-1.112343 2.307081-3.707809 2.307081H62.002802q-2.265883 0-1.277134-2.059894l41.898238-87.586682a4.07859 4.07859 0 0 1 3.666611-2.307081h117.001965q2.018696 0 2.883851-1.853904l53.145259-112.223011q1.812706-3.749007-2.389477-3.790205l-96.15584-0.205989q-2.430675 0-1.400728-2.14229L221.108994 306.10021q1.112343-2.348279 3.666611-2.348278l96.691413 0.041197a4.160985 4.119787 12.5 0 0 3.749006-2.348278L398.465846 145.428498q1.277134-2.760258-1.771509-2.760257H226.794301q-1.895102 0-1.071145-1.730311L293.946837 0z m215.629677 300.29131a2.101092 2.101092 0 0 0 1.853905 3.007445l21.093312 0.370781a2.101092 2.101092 0 0 0 1.9363-1.194739l84.702831-181.476638a2.101092 2.101092 0 0 0-1.895103-3.007445l-21.50529-0.123594a2.101092 2.101092 0 0 0-1.9363 1.235936l-84.249655 181.188254z m319.530718-179.787526a2.101092 2.101092 0 0 0-1.977498-2.966247l-21.793676 0.700364a2.101092 2.101092 0 0 0-1.812706 1.194738l-84.084863 180.941067a2.101092 2.101092 0 0 0 1.853904 3.007445l20.928521 0.411978a2.101092 2.101092 0 0 0 1.9363-1.194738l84.950018-182.094607z m99.122087 180.611484a1.565519 1.565519 0 0 0 1.441926 2.224685l23.276799-0.123594a1.565519 1.565519 0 0 0 1.400728-0.906353l84.661633-182.053409a1.565519 1.565519 0 0 0-1.400728-2.224685l-22.535238-0.247188a1.565519 1.565519 0 0 0-1.400728 0.906354l-85.444392 182.42419zM410.20724 512.130783a1.318332 1.318332 0 0 0 1.194739 1.895102l23.729976-0.123594a1.318332 1.318332 0 0 0 1.194738-0.741561l53.474841-115.024467a1.318332 1.318332 0 0 0-1.194738-1.853905l-23.235601 0.370781a1.318332 1.318332 0 0 0-1.153541 0.741562l-54.010414 114.736082z m289.003092-112.799782a2.059894 2.059894 0 0 0-1.853904-2.966247l-21.834874 0.164792a2.059894 2.059894 0 0 0-1.812706 1.15354l-53.51604 113.376552a2.059894 2.059894 0 0 0 1.853905 2.925049l22.205654-0.041198a2.059894 2.059894 0 0 0 1.853905-1.194738l53.10406-113.41775z m210.315152-0.988749a1.35953 1.35953 0 0 0-1.235936-1.9363l-23.565185 0.205989a1.35953 1.35953 0 0 0-1.235936 0.78276l-53.763227 114.612488a1.35953 1.35953 0 0 0 1.235936 1.9363h23.606383a1.35953 1.35953 0 0 0 1.235936-0.782759l53.722029-114.818478zM1900.62276 736.28842L1866.263732 825.481819a1.689113 1.689113 0 0 1-1.565519 1.071145l-292.175329 0.041198a1.689113 1.689113 0 0 1-1.524321-2.389477l330.406956-706.419961a1.689113 1.689113 0 0 0 0.164792-0.700364l0.205989-90.388137a1.689113 1.689113 0 0 1 1.689113-1.689113l524.078167-0.123594a1.689113 1.689113 0 0 1 1.565519 2.389477l-259.917393 553.781834a1.689113 1.689113 0 0 1-1.524321 0.988749l-298.849385-0.123593a1.689113 1.689113 0 0 0-1.524321 0.988749l-69.459617 148.88912a1.689113 1.689113 0 0 0 1.565519 2.389476l99.65766-0.205989a1.689113 1.689113 0 0 1 1.565519 2.307081z m120.998158-481.108783a1.689113 1.689113 0 0 0 1.524322 2.389477l113.129364-0.082396a1.689113 1.689113 0 0 0 1.524321-0.988749l63.115145-136.694549a1.689113 1.689113 0 0 0-1.524322-2.389477l-113.00577 0.082396a1.689113 1.689113 0 0 0-1.524322 0.988749l-63.238738 136.694549z m-108.597598 230.996484a2.265883 2.265883 0 0 0 2.059894 3.213435l111.811032-0.164792a2.265883 2.265883 0 0 0 2.059894-1.318332l63.032749-135.087832a2.265883 2.265883 0 0 0-2.018696-3.213434l-111.811033 0.082396a2.265883 2.265883 0 0 0-2.059893 1.318332l-63.073947 135.170227zM2416.09057 244.344596l103.859843-218.760716a1.400728 1.400728 0 0 1 1.235936-0.782759h180.446692a1.400728 1.400728 0 0 1 1.277134 2.018696l-103.612655 218.637122a1.400728 1.400728 0 0 1-1.235936 0.782759l-180.69388 0.123594a1.400728 1.400728 0 0 1-1.277134-2.018696zM3178.622036 458.49115l-42.845789 89.234597a1.441926 1.441926 0 0 1-1.318332 0.823957l-149.960265 0.082396a1.441926 1.441926 0 0 0-1.318332 0.823957l-23.112008 48.201514a1.441926 1.441926 0 0 0 1.318332 2.059894l216.494833-0.082396a1.441926 1.441926 0 0 1 1.318332 2.059894l-42.804592 89.152201a1.441926 1.441926 0 0 1-1.318332 0.823957l-631.522224 0.906354a1.441926 1.441926 0 0 1-1.277134-2.059894l215.094104-442.176791a1.441926 1.441926 0 0 0-1.318332-2.059894l-65.916599 0.041198a1.441926 1.441926 0 0 1-1.277135-2.059894l103.53026-218.637122a1.441926 1.441926 0 0 1 1.277134-0.823957l179.952318-0.041198a1.441926 1.441926 0 0 1 1.277134 2.059894l-59.984106 126.601069a1.441926 1.441926 0 0 0 1.277134 2.059894l78.770337 0.041198a1.441926 1.441926 0 0 0 1.318332-0.823958l62.867957-129.072942a1.441926 1.441926 0 0 1 1.318332-0.823957l184.978458-0.041198a1.441926 1.441926 0 0 1 1.277134 2.059894l-61.632021 126.642267a1.441926 1.441926 0 0 0 1.277134 2.059894l155.48078-0.041198a1.441926 1.441926 0 0 1 1.318332 2.059894L3260.399818 245.62173a1.441926 1.441926 0 0 1-1.318332 0.823958l-127.342631-0.123594a1.441926 1.441926 0 0 0-1.318332 0.823957l-31.887155 65.422226a1.441926 1.441926 0 0 0 1.277134 2.059893l122.769667-0.041197a1.441926 1.441926 0 0 1 1.318332 2.059893l-42.84579 88.822619a1.441926 1.441926 0 0 1-1.318332 0.823957l-125.900706 0.082396a1.441926 1.441926 0 0 0-1.318332 0.823957l-23.153205 47.171567a1.441926 1.441926 0 0 0 1.277134 2.059894h146.664434a1.441926 1.441926 0 0 1 1.318332 2.059894z m-308.448489-146.95282a2.101092 2.101092 0 0 0 1.895102 3.048643l40.703501-0.041198a2.101092 2.101092 0 0 0 1.895102-1.194739l31.022-64.103893a2.101092 2.101092 0 0 0-1.895102-3.007445l-40.415116 0.247187a2.101092 2.101092 0 0 0-1.895102 1.153541l-31.310385 63.897904z m-1.483123 97.350578a1.812706 1.812706 0 0 0-1.606717-2.595466l-41.239073 0.082396a1.812706 1.812706 0 0 0-1.606717 0.988749l-23.07081 46.594796a1.812706 1.812706 0 0 0 1.606717 2.636664l41.692249-0.123593a1.812706 1.812706 0 0 0 1.606717-1.029947l22.617634-46.553599z m-69.953992 142.215064a1.730311 1.730311 0 0 0-1.565519-2.471872h-41.48626a1.730311 1.730311 0 0 0-1.565519 0.988749l-23.317997 47.707139a1.730311 1.730311 0 0 0 1.524321 2.51307l41.774645-0.082395a1.730311 1.730311 0 0 0 1.524321-0.988749l23.112008-47.665942zM3598.634371 275.407794l117.949516-249.782716a1.441926 1.441926 0 0 1 1.277134-0.823957l180.240702-0.041198a1.441926 1.441926 0 0 1 1.318332 2.059894l-31.39278 66.86415a1.441926 1.441926 0 0 0 1.318332 2.059894l247.228447-0.082396a1.441926 1.441926 0 0 1 1.15354 2.307081L4052.67615 187.038352a1.441926 1.441926 0 0 1-1.153541 0.57677h-227.288675a1.441926 1.441926 0 0 0-1.277134 0.823958l-39.879543 85.691579a1.441926 1.441926 0 0 0 1.318332 2.059894l278.209249-0.082396a1.441926 1.441926 0 0 1 1.318332 2.059894l-43.175373 88.781421a1.441926 1.441926 0 0 1-1.318332 0.823957l-230.131329 0.082396a1.441926 1.441926 0 0 0-1.277134 0.823957l-142.462252 299.467353a1.441926 1.441926 0 0 1-1.318332 0.823957l-180.487889-0.082395a1.441926 1.441926 0 0 1-1.277135-2.059894l141.432305-296.954282a1.441926 1.441926 0 0 0-1.277134-2.059894h-330.036176a1.441926 1.441926 0 0 1-1.277134-2.059894l43.257769-88.822618a1.441926 1.441926 0 0 1 1.318332-0.823958l50.302605 0.247188a1.441926 1.441926 0 0 0 1.277134-0.823958l90.429335-194.453969a1.441926 1.441926 0 0 1 1.277134-0.823958h180.446692a1.441926 1.441926 0 0 1 1.318332 2.059894L3551.668794 274.377847a1.441926 1.441926 0 0 0 1.318332 2.059893l44.370111-0.205989a1.441926 1.441926 0 0 0 1.277134-0.823957z" p-id="4314"></path><path d="M2333.736018 584.10347l-21.958467-0.041198a1.647915 1.647915 0 0 1-1.483123-2.348279l101.470365-213.2402a1.647915 1.647915 0 0 0-1.483123-2.348279l-57.635827-0.082396a1.647915 1.647915 0 0 1-1.483124-2.348279l42.886988-88.328243a1.647915 1.647915 0 0 1 1.483124-0.947551l241.625536 0.082395a1.647915 1.647915 0 0 1 1.483123 2.348279l-112.676187 237.794134a1.647915 1.647915 0 0 0 1.524321 2.389477l21.834874-0.535573a1.647915 1.647915 0 0 1 1.524321 2.389477l-101.140783 213.569784a1.647915 1.647915 0 0 0 1.483124 2.348278l1217.108817 0.247188a1.647915 1.647915 0 0 0 1.483124-0.947551l155.521978-332.714038a1.647915 1.647915 0 0 1 1.483123-0.947551l179.828724 0.041198a1.647915 1.647915 0 0 1 1.483123 2.348279l-153.956458 329.706592a1.647915 1.647915 0 0 0 1.483123 2.348279l89.852566-0.041198a1.647915 1.647915 0 0 1 1.483123 2.348279l-40.291522 88.451838a1.647915 1.647915 0 0 1-1.524321 0.947551H2223.98488a1.647915 1.647915 0 0 1-1.483124-2.348279l112.717386-237.794134a1.647915 1.647915 0 0 0-1.483124-2.348279z" p-id="4315"></path><path d="M3529.421941 427.386754l-101.717553 218.060352a1.400728 1.400728 0 0 1-1.277134 0.823957l-180.48789 0.041198a1.400728 1.400728 0 0 1-1.235936-1.977498l101.635157-218.060352a1.400728 1.400728 0 0 1 1.277134-0.823957l180.570286-0.041198a1.400728 1.400728 0 0 1 1.235936 1.977498zM2152.218182 826.594162l-170.971181-0.082396a1.853904 1.853904 0 0 1-1.689113-1.071145l-95.620268-207.019321a1.853904 1.853904 0 0 1 1.647915-2.636664l171.012379 0.082396a1.853904 1.853904 0 0 1 1.689113 1.071144l25.666276 55.699527a1.853904 1.853904 0 0 0 3.337028 0l26.613827-55.658329a1.853904 1.853904 0 0 1 1.647915-1.071145l125.571123-0.123593a1.853904 1.853904 0 0 1 1.689113 2.636664l-54.66958 115.72483a1.853904 1.853904 0 0 1-1.647915 1.071145l-70.901543 0.20599a1.853904 1.853904 0 0 0-1.647915 2.636664l39.961939 85.897569a1.853904 1.853904 0 0 1-1.689113 2.636664zM803.111373 701.476216l24.018361-49.64344a1.606717 1.606717 0 0 1 1.441926-0.906353h274.460242a1.606717 1.606717 0 0 1 1.441926 2.307081l-56.193902 116.589986a1.606717 1.606717 0 0 1-1.441925 0.906353l-241.048766 0.041198a1.606717 1.606717 0 0 0-1.441926 0.906353l-24.306746 49.64344a1.606717 1.606717 0 0 1-1.441926 0.906353l-274.419044 0.123594a1.606717 1.606717 0 0 1-1.441926-2.307081l22.658831-47.130369a1.606717 1.606717 0 0 0-1.441925-2.307081l-217.977956 0.041198a1.606717 1.606717 0 0 0-1.483124 0.906353l-25.954661 54.134007a1.606717 1.606717 0 0 1-1.483123 0.906354l-274.254254-0.041198a1.606717 1.606717 0 0 1-1.441925-2.307081l56.193901-117.001965a1.606717 1.606717 0 0 1 1.483124-0.906353h255.138439a1.606717 1.606717 0 0 0 1.441925-0.906353l25.954662-53.598436a1.606717 1.606717 0 0 1 1.441925-0.906353h274.748628a1.606717 1.606717 0 0 1 1.441925 2.307081l-23.029612 46.883182a1.606717 1.606717 0 0 0 1.441926 2.307081l204.053074-0.041198a1.606717 1.606717 0 0 0 1.441926-0.906353z" p-id="4316"></path></svg>